<svg xmlns="http://www.w3.org/2000/svg" width="850" height="257" viewBox="0 0 850 257" role="img" font-family="'Inter','Outfit','Plus Jakarta Sans',system-ui,-apple-system,'Segoe UI',Roboto,sans-serif"><defs><pattern id="dgs" width="19" height="19" patternUnits="userSpaceOnUse"><circle cx="1.6" cy="1.6" r="1.15" fill="#e8eaf6" opacity="0.05"/></pattern></defs><rect x="0.0" y="0.0" width="850.0" height="257.0" fill="#0a0f1e"/><rect x="0.0" y="0.0" width="850.0" height="257.0" fill="url(#dgs)"/><line x1="822.0" y1="11.0" x2="839.0" y2="11.0" stroke="#818cf8" stroke-width="3"/><line x1="839.0" y1="11.0" x2="839.0" y2="28.0" stroke="#818cf8" stroke-width="3"/><line x1="11.0" y1="246.0" x2="28.0" y2="246.0" stroke="#818cf8" stroke-width="3"/><line x1="11.0" y1="229.0" x2="11.0" y2="246.0" stroke="#818cf8" stroke-width="3"/><rect x="21.0" y="17.0" width="215.0" height="34.0" rx="17" fill="#34d399" opacity="0.18"/><rect x="24.0" y="20.0" width="209.0" height="28.0" rx="14" fill="#34d399"/><text x="38.0" y="38.7" fill="#ffffff" style="font-family:'Inter','Outfit','Plus Jakarta Sans',system-ui,-apple-system,'Segoe UI',Roboto,sans-serif;font-size:13px;font-weight:700;letter-spacing:0.3px">02 // LIVE SYSTEM STATUS</text><text x="24.0" y="72.0" fill="#6b7280" style="font-family:'Inter','Outfit','Plus Jakarta Sans',system-ui,-apple-system,'Segoe UI',Roboto,sans-serif;font-size:12px;font-weight:600">every public flagship — CI verdict, release, last commit &amp; recent build history, live</text><circle cx="784.0" cy="33.0" r="4" fill="#818cf8"><animate attributeName="opacity" values="1;0.25;1" dur="1.6s" repeatCount="indefinite"/></circle><text x="794.0" y="36.0" fill="#6b7280" style="font-family:'JetBrains Mono','Fira Code','Cascadia Code',ui-monospace,'SF Mono',Menlo,Consolas,monospace;font-size:10.5px;font-weight:800;letter-spacing:1px">LIVE</text><rect x="24.0" y="82.0" width="123.0" height="24.0" rx="12" fill="#34d399" opacity="0.15"/><rect x="24.0" y="82.0" width="123.0" height="24.0" rx="12" fill="#111827"/><circle cx="38.0" cy="94.0" r="5.0" fill="#34d399"/><text x="50.0" y="98.0" fill="#e8eaf6" style="font-family:'Inter','Outfit','Plus Jakarta Sans',system-ui,-apple-system,'Segoe UI',Roboto,sans-serif;font-size:11px;font-weight:700">5 OPERATIONAL</text><rect x="159.0" y="82.0" width="102.0" height="24.0" rx="12" fill="#f87171" opacity="0.15"/><rect x="159.0" y="82.0" width="102.0" height="24.0" rx="12" fill="#111827"/><circle cx="173.0" cy="94.0" r="5.0" fill="#f87171"/><text x="185.0" y="98.0" fill="#e8eaf6" style="font-family:'Inter','Outfit','Plus Jakarta Sans',system-ui,-apple-system,'Segoe UI',Roboto,sans-serif;font-size:11px;font-weight:700">0 DEGRADED</text><rect x="273.0" y="82.0" width="74.0" height="24.0" rx="12" fill="#374151" opacity="0.15"/><rect x="273.0" y="82.0" width="74.0" height="24.0" rx="12" fill="#111827"/><circle cx="287.0" cy="94.0" r="5.0" fill="#374151"/><text x="299.0" y="98.0" fill="#e8eaf6" style="font-family:'Inter','Outfit','Plus Jakarta Sans',system-ui,-apple-system,'Segoe UI',Roboto,sans-serif;font-size:11px;font-weight:700">0 IDLE</text><rect x="20.0" y="109.0" width="810.0" height="25.0" rx="6" fill="#374151" opacity="0.1"/><circle cx="34.0" cy="120.0" r="6.5" fill="#34d399"/><circle cx="52.0" cy="120.0" r="4.0" fill="#00ADD8"/><text x="64.0" y="124.0" fill="#e8eaf6" style="font-family:'JetBrains Mono','Fira Code','Cascadia Code',ui-monospace,'SF Mono',Menlo,Consolas,monospace;font-size:12.5px;font-weight:600">grc-distributed-monolith</text><text x="300.0" y="124.0" fill="#818cf8" style="font-family:'Inter','Outfit','Plus Jakarta Sans',system-ui,-apple-system,'Segoe UI',Roboto,sans-serif;font-size:11px;font-weight:700">v1.0.0</text><text x="390.0" y="124.0" fill="#6b7280" style="font-family:'Inter','Outfit','Plus Jakarta Sans',system-ui,-apple-system,'Segoe UI',Roboto,sans-serif;font-size:10.5px;font-weight:500">updated 1d</text><text x="690.0" y="124.0" fill="#374151" text-anchor="end" style="font-family:'Inter','Outfit','Plus Jakarta Sans',system-ui,-apple-system,'Segoe UI',Roboto,sans-serif;font-size:9.5px;font-weight:700">CI</text><rect x="700.0" y="114.0" width="7" height="13" rx="2" fill="#1f2937"/><rect x="710.0" y="114.0" width="7" height="13" rx="2" fill="#1f2937"/><rect x="720.0" y="114.0" width="7" height="13" rx="2" fill="#1f2937"/><rect x="730.0" y="114.0" width="7" height="13" rx="2" fill="#1f2937"/><rect x="740.0" y="114.0" width="7" height="13" rx="2" fill="#1f2937"/><rect x="750.0" y="114.0" width="7" height="13" rx="2" fill="#1f2937"/><rect x="760.0" y="114.0" width="7" height="13" rx="2" fill="#1f2937"/><rect x="770.0" y="114.0" width="7" height="13" rx="2" fill="#34d399"/><rect x="780.0" y="114.0" width="7" height="13" rx="2" fill="#34d399"/><rect x="790.0" y="114.0" width="7" height="13" rx="2" fill="#34d399"/><rect x="800.0" y="114.0" width="7" height="13" rx="2" fill="#34d399"/><rect x="810.0" y="114.0" width="7" height="13" rx="2" fill="#34d399"/><circle cx="34.0" cy="147.0" r="6.5" fill="#34d399"/><circle cx="52.0" cy="147.0" r="4.0" fill="#f1e05a"/><text x="64.0" y="151.0" fill="#e8eaf6" style="font-family:'JetBrains Mono','Fira Code','Cascadia Code',ui-monospace,'SF Mono',Menlo,Consolas,monospace;font-size:12.5px;font-weight:600">form-engine</text><text x="300.0" y="151.0" fill="#374151" style="font-family:'Inter','Outfit','Plus Jakarta Sans',system-ui,-apple-system,'Segoe UI',Roboto,sans-serif;font-size:11px;font-weight:700">—</text><text x="390.0" y="151.0" fill="#6b7280" style="font-family:'Inter','Outfit','Plus Jakarta Sans',system-ui,-apple-system,'Segoe UI',Roboto,sans-serif;font-size:10.5px;font-weight:500">updated 1d</text><text x="690.0" y="151.0" fill="#374151" text-anchor="end" style="font-family:'Inter','Outfit','Plus Jakarta Sans',system-ui,-apple-system,'Segoe UI',Roboto,sans-serif;font-size:9.5px;font-weight:700">CI</text><rect x="700.0" y="141.0" width="7" height="13" rx="2" fill="#1f2937"/><rect x="710.0" y="141.0" width="7" height="13" rx="2" fill="#1f2937"/><rect x="720.0" y="141.0" width="7" height="13" rx="2" fill="#1f2937"/><rect x="730.0" y="141.0" width="7" height="13" rx="2" fill="#1f2937"/><rect x="740.0" y="141.0" width="7" height="13" rx="2" fill="#1f2937"/><rect x="750.0" y="141.0" width="7" height="13" rx="2" fill="#1f2937"/><rect x="760.0" y="141.0" width="7" height="13" rx="2" fill="#1f2937"/><rect x="770.0" y="141.0" width="7" height="13" rx="2" fill="#34d399"/><rect x="780.0" y="141.0" width="7" height="13" rx="2" fill="#34d399"/><rect x="790.0" y="141.0" width="7" height="13" rx="2" fill="#34d399"/><rect x="800.0" y="141.0" width="7" height="13" rx="2" fill="#34d399"/><rect x="810.0" y="141.0" width="7" height="13" rx="2" fill="#34d399"/><rect x="20.0" y="163.0" width="810.0" height="25.0" rx="6" fill="#374151" opacity="0.1"/><circle cx="34.0" cy="174.0" r="6.5" fill="#34d399"/><circle cx="52.0" cy="174.0" r="4.0" fill="#00ADD8"/><text x="64.0" y="178.0" fill="#e8eaf6" style="font-family:'JetBrains Mono','Fira Code','Cascadia Code',ui-monospace,'SF Mono',Menlo,Consolas,monospace;font-size:12.5px;font-weight:600">automated-installer</text><text x="300.0" y="178.0" fill="#818cf8" style="font-family:'Inter','Outfit','Plus Jakarta Sans',system-ui,-apple-system,'Segoe UI',Roboto,sans-serif;font-size:11px;font-weight:700">v1.2</text><text x="390.0" y="178.0" fill="#6b7280" style="font-family:'Inter','Outfit','Plus Jakarta Sans',system-ui,-apple-system,'Segoe UI',Roboto,sans-serif;font-size:10.5px;font-weight:500">updated 1d</text><text x="690.0" y="178.0" fill="#374151" text-anchor="end" style="font-family:'Inter','Outfit','Plus Jakarta Sans',system-ui,-apple-system,'Segoe UI',Roboto,sans-serif;font-size:9.5px;font-weight:700">CI</text><rect x="700.0" y="168.0" width="7" height="13" rx="2" fill="#1f2937"/><rect x="710.0" y="168.0" width="7" height="13" rx="2" fill="#1f2937"/><rect x="720.0" y="168.0" width="7" height="13" rx="2" fill="#1f2937"/><rect x="730.0" y="168.0" width="7" height="13" rx="2" fill="#1f2937"/><rect x="740.0" y="168.0" width="7" height="13" rx="2" fill="#1f2937"/><rect x="750.0" y="168.0" width="7" height="13" rx="2" fill="#1f2937"/><rect x="760.0" y="168.0" width="7" height="13" rx="2" fill="#1f2937"/><rect x="770.0" y="168.0" width="7" height="13" rx="2" fill="#34d399"/><rect x="780.0" y="168.0" width="7" height="13" rx="2" fill="#34d399"/><rect x="790.0" y="168.0" width="7" height="13" rx="2" fill="#34d399"/><rect x="800.0" y="168.0" width="7" height="13" rx="2" fill="#34d399"/><rect x="810.0" y="168.0" width="7" height="13" rx="2" fill="#34d399"/><circle cx="34.0" cy="201.0" r="6.5" fill="#34d399"/><circle cx="52.0" cy="201.0" r="4.0" fill="#89e051"/><text x="64.0" y="205.0" fill="#e8eaf6" style="font-family:'JetBrains Mono','Fira Code','Cascadia Code',ui-monospace,'SF Mono',Menlo,Consolas,monospace;font-size:12.5px;font-weight:600">CompliSec</text><text x="300.0" y="205.0" fill="#818cf8" style="font-family:'Inter','Outfit','Plus Jakarta Sans',system-ui,-apple-system,'Segoe UI',Roboto,sans-serif;font-size:11px;font-weight:700">v1.0</text><text x="390.0" y="205.0" fill="#6b7280" style="font-family:'Inter','Outfit','Plus Jakarta Sans',system-ui,-apple-system,'Segoe UI',Roboto,sans-serif;font-size:10.5px;font-weight:500">updated 1d</text><text x="690.0" y="205.0" fill="#374151" text-anchor="end" style="font-family:'Inter','Outfit','Plus Jakarta Sans',system-ui,-apple-system,'Segoe UI',Roboto,sans-serif;font-size:9.5px;font-weight:700">CI</text><rect x="700.0" y="195.0" width="7" height="13" rx="2" fill="#1f2937"/><rect x="710.0" y="195.0" width="7" height="13" rx="2" fill="#1f2937"/><rect x="720.0" y="195.0" width="7" height="13" rx="2" fill="#1f2937"/><rect x="730.0" y="195.0" width="7" height="13" rx="2" fill="#1f2937"/><rect x="740.0" y="195.0" width="7" height="13" rx="2" fill="#1f2937"/><rect x="750.0" y="195.0" width="7" height="13" rx="2" fill="#1f2937"/><rect x="760.0" y="195.0" width="7" height="13" rx="2" fill="#1f2937"/><rect x="770.0" y="195.0" width="7" height="13" rx="2" fill="#34d399"/><rect x="780.0" y="195.0" width="7" height="13" rx="2" fill="#34d399"/><rect x="790.0" y="195.0" width="7" height="13" rx="2" fill="#34d399"/><rect x="800.0" y="195.0" width="7" height="13" rx="2" fill="#34d399"/><rect x="810.0" y="195.0" width="7" height="13" rx="2" fill="#34d399"/><rect x="20.0" y="217.0" width="810.0" height="25.0" rx="6" fill="#374151" opacity="0.1"/><circle cx="34.0" cy="228.0" r="6.5" fill="#34d399"/><circle cx="52.0" cy="228.0" r="4.0" fill="#00B4AB"/><text x="64.0" y="232.0" fill="#e8eaf6" style="font-family:'JetBrains Mono','Fira Code','Cascadia Code',ui-monospace,'SF Mono',Menlo,Consolas,monospace;font-size:12.5px;font-weight:600">flutter-ui-kit</text><text x="300.0" y="232.0" fill="#374151" style="font-family:'Inter','Outfit','Plus Jakarta Sans',system-ui,-apple-system,'Segoe UI',Roboto,sans-serif;font-size:11px;font-weight:700">—</text><text x="390.0" y="232.0" fill="#6b7280" style="font-family:'Inter','Outfit','Plus Jakarta Sans',system-ui,-apple-system,'Segoe UI',Roboto,sans-serif;font-size:10.5px;font-weight:500">updated 1d</text><text x="690.0" y="232.0" fill="#374151" text-anchor="end" style="font-family:'Inter','Outfit','Plus Jakarta Sans',system-ui,-apple-system,'Segoe UI',Roboto,sans-serif;font-size:9.5px;font-weight:700">CI</text><rect x="700.0" y="222.0" width="7" height="13" rx="2" fill="#1f2937"/><rect x="710.0" y="222.0" width="7" height="13" rx="2" fill="#1f2937"/><rect x="720.0" y="222.0" width="7" height="13" rx="2" fill="#1f2937"/><rect x="730.0" y="222.0" width="7" height="13" rx="2" fill="#1f2937"/><rect x="740.0" y="222.0" width="7" height="13" rx="2" fill="#1f2937"/><rect x="750.0" y="222.0" width="7" height="13" rx="2" fill="#1f2937"/><rect x="760.0" y="222.0" width="7" height="13" rx="2" fill="#1f2937"/><rect x="770.0" y="222.0" width="7" height="13" rx="2" fill="#34d399"/><rect x="780.0" y="222.0" width="7" height="13" rx="2" fill="#34d399"/><rect x="790.0" y="222.0" width="7" height="13" rx="2" fill="#34d399"/><rect x="800.0" y="222.0" width="7" height="13" rx="2" fill="#34d399"/><rect x="810.0" y="222.0" width="7" height="13" rx="2" fill="#34d399"/></svg>